<svg width="170" height="184" viewBox="0 0 170 184" fill="none" xmlns="http://www.w3.org/2000/svg">
<path d="M163.831 89.1438C163.149 88.3987 163.108 87.7121 163.807 86.896C165.1 85.3861 166.161 83.3437 167.063 81.2057C168.359 78.1283 169.753 72.6624 169.753 67.9274C169.753 49.459 155.672 35.5313 136.999 35.5313C136.053 35.5313 134.333 35.7169 133.302 35.9121C131.951 36.1673 131.32 35.9919 131.571 34.1984C131.612 33.895 131.926 31.6527 131.926 28.9806C131.926 21.6999 130.189 15.9338 126.614 11.3465C119.303 1.96891 109.977 0 103.437 0C96.5334 0 91.4779 1.96022 88.9635 3.15563C86.45 4.35104 85.2778 4.69631 84.8763 4.69631C84.4749 4.69631 83.3035 4.35104 80.7891 3.15563C78.2756 1.96022 73.2201 0 66.3155 0C59.7761 0 50.4492 1.96891 43.1384 11.3465C39.5644 15.9338 37.8263 21.7007 37.8263 28.9806C37.8263 31.6535 38.1396 33.8958 38.1821 34.1984C38.4324 35.9911 37.8019 36.1673 36.4502 35.9121C35.4198 35.7169 33.6997 35.5313 32.7535 35.5313C14.0793 35.5313 0 49.459 0 67.9274C0 72.6624 1.39415 78.1283 2.6899 81.2057C3.59204 83.3437 4.65242 85.3861 5.94581 86.896C6.64485 87.7121 6.6047 88.3987 5.9214 89.1438C4.82797 90.3368 3.77546 91.8751 2.78515 93.9546C1.07218 97.5503 0.00157356 101.029 0.00157356 107.246C0.00157356 115.215 3.28976 123.299 9.00649 129.427C15.1696 136.032 23.4463 139.671 32.3158 139.671H32.319C33.0125 139.671 34.6239 139.61 35.4332 139.529C36.9509 139.379 37.2312 139.646 37.2745 141.082C37.5098 148.8 42.1008 156.98 52.2039 158.777C56.828 159.6 60.5358 158.845 62.5124 158.288C64.312 157.785 64.312 158.327 64.4356 159.593C64.5883 161.18 65.0221 162.868 65.7188 164.662C68.6251 172.144 79.3092 183.277 84.874 183.277C90.4364 183.277 101.129 172.144 104.035 164.662C104.732 162.868 105.166 161.179 105.319 159.593C105.442 158.327 105.442 157.785 107.242 158.288C109.218 158.845 112.925 159.6 117.55 158.777C127.653 156.98 132.244 148.8 132.48 141.082C132.523 139.646 132.803 139.379 134.321 139.529C135.13 139.61 136.742 139.671 137.435 139.671H137.438C146.307 139.671 154.585 136.032 160.747 129.427C166.464 123.299 169.752 115.215 169.752 107.246C169.752 101.029 168.681 97.5503 166.968 93.9546C165.976 91.8751 164.924 90.3376 163.831 89.1438Z" fill="white"/>
<path d="M101.153 84.0627C101.017 83.5151 100.687 81.8615 100.83 81.4222C100.97 80.9821 101.313 80.0996 101.563 79.3648C102.859 75.5889 102.264 71.6329 101.849 70.7346C101.768 70.5608 101.594 70.5363 101.474 70.5181C99.6381 70.2408 98.1314 71.4251 96.3019 73.6311C95.5698 74.5128 94.7464 75.1844 94.5394 73.9756C94.4008 73.1768 95.0235 71.5381 94.2796 71.6124C92.5572 71.7941 91.4362 72.7849 90.4608 74.0704C89.7098 75.0643 89.6531 75.5858 88.7801 75.6118C87.0372 75.6909 86.2256 75.7628 84.8818 76.0851C83.5341 76.4059 82.395 76.9108 81.5874 77.4117C80.5766 78.0445 79.8185 78.9958 77.4419 79.0148C73.6365 79.0472 68.8086 79.1349 66.9342 79.4936C65.0079 79.861 64.7348 81.0896 65.7573 82.8041C66.9563 84.8117 67.3121 89.1264 69.7343 89.7411C70.3767 91.1119 70.8144 92.1556 71.4394 92.0948C71.6543 92.0497 71.8732 91.3845 72.0306 90.7706C72.366 89.425 73.6657 89.365 74.5229 89.3215C76.6878 89.2109 78.3661 89.3342 79.8287 90.1606C80.8301 90.7271 81.3197 91.7345 81.1308 92.124C80.7899 92.8232 80.0736 91.868 76.3587 92.6233C74.2592 93.0492 72.9737 94.179 70.2688 94.179C66.2383 94.179 64.2632 91.4398 63.5547 88.9944C63.1973 87.7666 62.9383 86.6234 61.4993 87.9744C59.6502 89.7095 59.5132 93.0113 61.4253 95.0276C62.6935 96.3644 64.4679 97.0605 66.606 97.2588C67.2601 97.3102 68.5693 97.3426 69.6367 97.2928C69.6367 97.2928 69.3321 98.1319 69.7918 98.873C70.2531 99.6156 71.6323 100.192 73.831 99.5351C76.9767 98.5948 79.68 97.7171 81.8448 99.3407C82.2384 99.6354 82.7249 100.179 82.7249 100.533C82.7249 101.178 80.3648 103.027 73.746 104.816C65.607 107.016 63.698 112.485 64.5222 115.474C64.5962 115.747 64.7718 116.013 64.978 116.025C65.2039 116.037 66.4501 115.304 67.1625 115.176C68.548 114.928 67.9639 115.937 67.7876 117.209C67.1594 121.743 73.5806 127.462 79.2517 131.403C82.3919 133.584 84.0813 134.328 84.8732 134.328C85.684 134.328 87.3624 133.726 90.4947 131.403C99.3343 124.846 105.196 115.665 104.246 110.773C103.706 107.998 102.267 106.308 102.954 105.861C103.751 105.348 105.458 106.679 105.834 106.444C106.721 105.891 107.126 100.753 105.49 95.3823C103.938 90.2783 102.194 88.2399 101.153 84.0627ZM84.5371 82.3632C83.7892 82.4754 82.8627 82.0748 83.0689 81.8014C83.1579 81.6837 83.3901 81.3748 83.2122 81.0026C82.9689 80.4954 82.1896 80.4875 81.6866 80.8075C82.0896 79.891 83.3917 79.2771 84.4993 79.2771C86.0611 79.2771 86.4216 80.1699 86.3272 80.8533C86.2154 81.6719 85.5053 82.2178 84.5371 82.3632Z" fill="#294885"/>
<path d="M11.4492 81.2815C12.8316 71.0008 18.6105 63.363 25.0278 59.7025C35.2584 53.8684 45.3938 56.0783 52.5015 57.6877C53.5556 57.9271 54.412 57.7746 54.7411 57.1307C55.0088 56.5998 54.8198 55.9961 53.9862 55.116C50.6437 51.5835 42.955 43.9069 41.9922 43.1002C39.6518 41.1416 35.7851 39.9794 32.7606 39.9794C15.4758 39.9794 4.53986 53.1723 4.53986 67.8586C4.53986 71.7024 5.61125 76.6705 6.78735 79.4627C7.88 82.0534 9.09072 84.3565 10.0503 84.3565C11.1587 84.3573 11.2461 82.789 11.4492 81.2815Z" fill="#3979B5"/>
<path d="M110.796 52.9591C110.311 52.5893 110.202 51.8569 110.312 50.7452C111.044 43.3713 110.299 36.1182 108.83 32.7145C106.942 28.3358 102.423 21.9456 98.8903 18.2329C94.3056 13.4133 92.6571 12.0868 90.5458 10.4797C90.0168 10.0776 88.877 9.4297 88.877 8.89401C88.877 8.30145 89.7555 7.68754 90.8182 7.19373C92.7996 6.27091 95.7052 5.01545 101.011 4.5572C107.321 4.01282 116.314 5.37889 123.104 14.0881C126.936 19.004 127.472 24.9511 127.472 28.975C127.472 33.7638 126.708 38.0729 124.44 40.5593C121.08 44.2412 113.884 51.4294 112.938 52.2835C112.479 52.6975 111.432 53.441 110.796 52.9591Z" fill="#3979B5"/>
<path d="M135.629 135.15C152.953 136.247 165.207 121.603 165.207 107.242C165.207 101.781 164.416 98.9037 162.971 95.8697C161.738 93.2814 160.323 91.5266 159.476 91.5305C158.644 91.5329 158.393 92.7528 158.258 93.471C154.903 111.071 142.532 121.287 134.111 121.425C131.642 121.466 128.637 120.897 128.37 119.693C127.986 117.968 130.939 114.288 130.939 107.385C130.939 104.589 129.715 99.5223 122.005 99.2173C115.21 98.9471 111.911 105.329 111.911 110.975C111.911 122.695 120.505 134.19 135.629 135.15Z" fill="#3979B5"/>
<path d="M34.1185 135.15C16.7952 136.247 4.54144 121.603 4.54144 107.242C4.54144 101.781 5.3318 98.9037 6.77712 95.8697C8.0099 93.2814 9.4253 91.5266 10.2716 91.5305C11.1036 91.5329 11.3548 92.7528 11.4902 93.471C14.8453 111.071 27.2163 121.287 35.6371 121.425C38.1066 121.466 41.1106 120.897 41.3782 119.693C41.7616 117.968 38.8087 114.288 38.8087 107.385C38.8087 104.589 40.0329 99.5223 47.7428 99.2173C54.538 98.9471 57.8372 105.329 57.8372 110.975C57.8364 122.695 49.2432 134.19 34.1185 135.15Z" fill="#255C9E"/>
<path d="M58.9511 52.9591C59.436 52.5893 59.5455 51.8569 59.4353 50.7452C58.7032 43.3713 59.4479 36.1182 60.9168 32.7145C62.8053 28.3358 67.3247 21.9456 70.8569 18.2329C75.4416 13.4133 77.09 12.0868 79.2013 10.4797C79.7304 10.0776 80.8702 9.4297 80.8702 8.89401C80.8702 8.30145 79.9917 7.68754 78.929 7.19373C76.9476 6.27091 74.042 5.01545 68.7362 4.5572C62.4259 4.01282 53.4336 5.37889 46.6431 14.0881C42.8109 19.004 42.2748 24.9511 42.2748 28.975C42.2748 33.7638 43.0384 38.0729 45.3072 40.5593C48.667 44.2412 55.8629 51.4294 56.8091 52.2835C57.2681 52.6975 58.3158 53.441 58.9511 52.9591Z" fill="#255C9E"/>
<path d="M158.298 81.2815C156.916 71.0008 151.137 63.363 144.719 59.7025C134.49 53.8684 124.353 56.0783 117.246 57.6877C116.192 57.9271 115.335 57.7746 115.006 57.1307C114.738 56.5998 114.927 55.9961 115.761 55.116C119.103 51.5835 126.792 43.9069 127.755 43.1002C130.095 41.1416 133.962 39.9794 136.987 39.9794C154.271 39.9794 165.207 53.1723 165.207 67.8586C165.207 71.7024 164.136 76.6705 162.96 79.4627C161.867 82.0534 160.657 84.3565 159.697 84.3565C158.588 84.3573 158.502 82.789 158.298 81.2815Z" fill="#255C9E"/>
<path d="M39.6156 59.9166C47.2988 59.9166 56.9571 62.5753 60.3106 65.1755C61.3749 66.0011 61.7245 67.1958 60.213 68.7119C58.2371 70.6943 54.29 74.6558 52.7054 76.2471C51.2892 77.6692 50.7326 78.5059 50.7326 81.4419C50.7326 85.8822 50.7326 91.104 50.7326 93.0041C50.7326 94.3971 50.1737 94.9936 48.1207 95.2369C47.5964 95.2985 46.5108 95.3618 45.7 95.4376C42.9148 95.6975 39.2976 96.7239 36.762 100.714C33.4856 105.868 35.4938 112.544 36.3857 115.131C37.0344 117.009 36.9226 118.13 34.1146 117.566C26.3165 115.998 14.2911 101.622 14.9948 85.6752C15.7254 69.1331 26.5873 59.9166 39.6156 59.9166Z" fill="#F9B200"/>
<path d="M130.132 59.9166C122.448 59.9166 112.79 62.5753 109.437 65.1755C108.372 66.0011 108.023 67.1958 109.534 68.7119C111.51 70.6943 115.457 74.6558 117.042 76.2471C118.458 77.6692 119.015 78.5059 119.015 81.4419C119.015 85.8822 119.015 91.104 119.015 93.0041C119.015 94.3971 119.573 94.9936 121.627 95.2369C122.151 95.2985 123.236 95.3618 124.047 95.4376C126.832 95.6975 130.45 96.7239 132.985 100.714C136.262 105.868 134.253 112.544 133.361 115.131C132.713 117.009 132.824 118.13 135.633 117.566C143.431 115.998 155.457 101.622 154.752 85.6752C154.023 69.1331 143.16 59.9166 130.132 59.9166Z" fill="#F9B200"/>
<path d="M98.3755 140.519C102.262 137.58 104.361 135.607 107.606 132.272C109.104 130.735 110.821 130.571 112.62 132.311C115.12 134.734 118.197 136.714 122.696 137.087C124.5 137.237 125.463 136.658 126.736 137.281C127.385 137.596 128.003 138.471 128.048 139.968C128.228 145.933 125.387 152.843 116.779 154.385C111.2 155.385 105.593 153.689 102.823 151.081C100.927 149.3 98.8352 147.314 97.6198 145.667C96.35 143.949 96.4082 142.005 98.3755 140.519Z" fill="#F9B200"/>
<path d="M71.3718 140.519C67.4853 137.58 65.3866 135.607 62.1409 132.272C60.6444 130.735 58.9259 130.571 57.1272 132.311C54.627 134.734 51.5506 136.714 47.0517 137.087C45.2474 137.237 44.2846 136.658 43.0109 137.281C42.3622 137.596 41.7443 138.471 41.6994 139.968C41.5191 145.933 44.3602 152.843 52.9683 154.385C58.5473 155.385 64.1538 153.689 66.924 151.081C68.8204 149.3 70.912 147.314 72.1275 145.667C73.398 143.949 73.3398 142.005 71.3718 140.519Z" fill="#F9B200"/>
<path d="M63.8932 36.4058C64.6348 32.6948 69.2778 25.6732 73.8011 20.9058C78.4086 16.0499 82.4258 12.2827 84.874 12.2827C87.3183 12.2827 91.3362 16.0499 95.9453 20.9058C100.469 25.6732 105.113 32.6948 105.852 36.4058C106.595 40.1169 107.596 47.8708 104.92 59.0941C104.162 62.2719 102.41 62.5745 100.43 62.5745C99.5484 62.5745 70.1972 62.5745 69.3179 62.5745C67.3373 62.5745 65.5857 62.2719 64.8261 59.0941C62.1496 47.8708 63.1517 40.1169 63.8932 36.4058Z" fill="#F49E00"/>
<path d="M84.874 147.371C87.0923 147.371 88.8282 146.014 90.3294 145.818C91.5991 145.652 92.4178 146.047 93.5805 147.216C95.266 148.911 97.6937 151.563 99.3067 153.549C100.47 154.981 102.049 157.372 99.8814 162.945C97.2214 169.79 87.6717 178.815 84.8732 178.815C82.0747 178.815 72.525 169.79 69.865 162.945C67.6986 157.372 69.2762 154.981 70.4397 153.549C72.0527 151.563 74.4804 148.911 76.1659 147.216C77.3286 146.047 78.1473 145.652 79.417 145.818C80.919 146.014 82.6556 147.371 84.874 147.371Z" fill="#F49E00"/>
</svg>
