<svg id="svg" version="1.1" xmlns="http://www.w3.org/2000/svg" xmlns:xlink="http://www.w3.org/1999/xlink" width="400" height="400" viewBox="0, 0, 400,400"><g id="svgg"><path id="path0" d="M197.285 57.486 C 193.659 57.913,190.623 59.569,186.361 63.447 C 184.349 65.277,182.524 66.665,182.307 66.530 C 182.089 66.396,182.023 66.468,182.161 66.691 C 182.658 67.495,173.761 73.812,165.211 78.724 C 162.340 80.374,159.017 82.382,157.827 83.186 C 156.637 83.989,155.400 84.572,155.078 84.481 C 154.666 84.365,154.631 84.414,154.961 84.650 C 155.287 84.882,154.733 85.548,153.146 86.833 C 142.863 95.157,138.690 107.294,138.676 128.925 L 138.672 134.999 133.033 135.465 C 129.932 135.722,124.302 136.380,120.523 136.928 C 116.744 137.476,113.496 137.828,113.305 137.710 C 113.114 137.592,112.898 137.642,112.826 137.821 C 112.688 138.165,100.544 140.725,98.763 140.785 C 98.190 140.804,97.794 140.893,97.882 140.981 C 97.971 141.070,97.300 141.475,96.392 141.882 C 93.870 143.011,93.359 143.635,93.359 145.586 C 93.359 147.338,94.607 149.211,95.783 149.225 C 96.186 149.229,96.183 149.298,95.768 149.561 C 95.414 149.785,95.602 149.890,96.354 149.887 C 110.707 149.832,152.233 149.805,219.548 149.805 C 301.603 149.805,303.378 149.789,304.509 149.053 C 307.682 146.987,307.379 143.558,303.883 141.982 C 302.737 141.465,302.450 141.177,302.818 140.913 C 303.179 140.653,303.128 140.613,302.636 140.771 C 301.690 141.076,294.881 139.473,294.041 138.748 C 293.663 138.422,293.238 138.272,293.097 138.414 C 292.955 138.556,293.073 138.672,293.359 138.672 C 293.646 138.672,293.798 138.754,293.698 138.854 C 293.597 138.955,291.239 138.624,288.457 138.120 C 285.675 137.616,281.518 136.974,279.220 136.695 C 276.729 136.391,275.137 136.033,275.277 135.806 C 275.406 135.596,275.310 135.551,275.060 135.705 C 274.361 136.137,262.244 135.096,262.214 134.601 C 262.201 134.369,262.156 131.410,262.115 128.026 C 262.071 124.442,261.891 121.964,261.684 122.092 C 261.488 122.213,261.328 122.170,261.328 121.996 C 261.326 119.978,260.349 112.420,259.707 109.455 C 259.256 107.370,258.878 105.088,258.867 104.384 C 258.857 103.679,258.733 103.290,258.593 103.518 C 258.272 104.036,256.028 98.524,256.128 97.461 C 256.168 97.031,256.103 96.917,255.984 97.207 C 255.850 97.535,255.191 96.823,254.244 95.326 C 253.406 94.000,252.825 92.748,252.952 92.542 C 253.079 92.336,253.024 92.216,252.830 92.275 C 252.635 92.335,251.524 91.329,250.359 90.041 C 249.195 88.754,247.845 87.377,247.360 86.983 C 246.874 86.588,246.595 86.060,246.739 85.809 C 246.883 85.557,246.861 85.477,246.691 85.631 C 246.216 86.059,244.861 85.185,245.169 84.648 C 245.317 84.391,245.296 84.308,245.123 84.464 C 244.950 84.621,243.999 84.156,243.010 83.430 C 242.020 82.705,240.290 81.506,239.164 80.765 C 238.038 80.025,237.247 79.275,237.406 79.100 C 237.565 78.925,237.496 78.895,237.252 79.034 C 236.379 79.533,222.352 70.933,222.543 70.017 C 222.589 69.800,222.325 69.646,221.957 69.675 C 221.551 69.706,221.340 69.497,221.419 69.141 C 221.491 68.818,221.425 68.679,221.273 68.831 C 220.858 69.246,218.327 67.171,218.621 66.656 C 218.761 66.411,218.735 66.338,218.563 66.493 C 218.103 66.909,215.181 64.471,215.490 63.931 C 215.633 63.681,215.616 63.597,215.452 63.745 C 215.287 63.893,214.033 63.064,212.665 61.903 C 207.917 57.875,203.865 56.711,197.285 57.486 M191.185 80.185 C 192.555 84.105,187.746 92.116,181.913 95.630 C 176.924 98.635,170.155 99.842,168.359 98.047 C 166.690 96.377,167.172 95.863,173.307 92.780 C 179.522 89.657,182.870 86.965,186.328 82.312 C 189.147 78.519,190.409 77.966,191.185 80.185 M261.250 122.734 C 261.574 123.058,261.719 125.052,261.719 129.180 L 261.719 135.156 200.391 135.156 L 139.063 135.156 139.063 128.711 L 139.063 122.266 199.922 122.266 C 246.736 122.266,260.889 122.374,261.250 122.734 M137.802 123.730 C 137.728 123.892,137.779 124.814,137.916 125.781 L 138.164 127.539 138.223 125.488 C 138.277 123.594,138.136 123.004,137.802 123.730 M137.788 128.027 C 137.706 128.188,137.763 128.848,137.914 129.492 C 138.184 130.644,138.190 130.639,138.235 129.199 C 138.279 127.808,138.116 127.381,137.788 128.027 M137.839 130.957 C 137.609 131.387,137.714 133.594,137.963 133.594 C 138.138 133.594,138.281 132.979,138.281 132.227 C 138.281 131.095,138.077 130.510,137.839 130.957 " stroke="none" fill="#f7a81b" fill-rule="evenodd"></path><path id="path1" d="M138.073 149.908 C 137.427 150.368,134.906 153.970,133.267 156.775 C 132.436 158.197,131.633 159.237,131.482 159.087 C 131.332 158.936,131.303 159.071,131.418 159.387 C 131.698 160.153,129.072 167.044,128.763 166.354 C 128.632 166.060,128.625 166.392,128.747 167.090 C 128.869 167.788,128.823 168.359,128.644 168.359 C 128.466 168.359,128.306 168.843,128.289 169.434 C 128.271 170.024,128.056 172.002,127.811 173.828 C 127.360 177.179,127.119 187.587,127.466 188.672 C 127.570 188.994,127.865 190.576,128.122 192.188 C 128.690 195.751,130.418 201.101,132.034 204.302 C 132.692 205.605,133.109 206.868,132.961 207.107 C 132.813 207.347,132.851 207.444,133.046 207.323 C 133.241 207.203,134.176 208.274,135.124 209.705 C 136.072 211.135,136.551 212.060,136.189 211.761 C 135.613 211.287,135.560 211.299,135.775 211.859 C 135.910 212.211,136.239 212.500,136.505 212.500 C 137.434 212.500,138.438 213.989,137.926 214.606 C 137.601 214.997,137.588 215.243,137.881 215.424 C 138.112 215.566,138.275 215.538,138.245 215.361 C 138.066 214.334,138.617 214.696,141.813 217.704 C 150.297 225.690,162.687 231.747,179.192 235.975 C 181.151 236.477,182.658 237.044,182.539 237.235 C 182.421 237.427,182.654 237.484,183.057 237.362 C 184.030 237.067,195.440 239.968,195.039 240.408 C 194.863 240.601,194.960 240.615,195.261 240.441 C 195.967 240.032,207.843 242.994,207.529 243.502 C 207.389 243.728,207.577 243.774,207.993 243.615 C 208.919 243.259,213.343 244.506,213.018 245.032 C 212.874 245.266,212.962 245.315,213.230 245.149 C 213.935 244.713,217.800 246.098,217.135 246.548 C 216.732 246.822,216.792 246.887,217.383 246.818 C 218.545 246.680,219.972 247.258,219.672 247.745 C 219.513 248.001,219.593 248.055,219.876 247.880 C 220.959 247.211,227.748 252.935,227.105 253.976 C 226.946 254.234,227.007 254.310,227.251 254.159 C 227.686 253.890,228.658 256.479,229.062 258.984 C 229.474 261.537,227.521 268.366,226.550 267.766 C 226.347 267.640,226.274 267.779,226.387 268.075 C 226.600 268.629,222.937 272.656,222.221 272.656 C 222.005 272.656,221.955 272.437,222.110 272.168 C 222.273 271.884,222.242 271.816,222.035 272.005 C 221.840 272.184,221.680 272.535,221.680 272.785 C 221.680 273.918,212.245 277.675,210.527 277.225 C 210.108 277.116,209.854 277.171,209.964 277.349 C 210.555 278.305,198.116 278.596,191.992 277.770 C 186.787 277.067,181.688 275.732,182.641 275.321 C 183.193 275.083,183.033 275.033,182.054 275.136 C 179.903 275.362,168.359 270.261,168.359 269.084 C 168.359 268.875,168.209 268.797,168.024 268.911 C 167.553 269.202,163.623 266.201,163.972 265.816 C 164.129 265.642,164.049 265.620,163.793 265.766 C 163.221 266.094,158.974 262.183,156.227 258.798 C 155.130 257.445,153.587 256.029,152.800 255.651 C 152.012 255.273,151.095 254.834,150.763 254.676 C 149.790 254.214,146.760 255.595,142.146 258.603 C 138.415 261.036,136.239 262.079,138.076 260.555 C 138.765 259.983,138.859 259.375,138.258 259.375 C 138.031 259.375,137.941 259.531,138.059 259.721 C 138.176 259.912,138.013 260.283,137.695 260.547 C 137.378 260.810,137.202 261.163,137.306 261.330 C 137.585 261.782,135.595 262.967,135.085 262.651 C 134.834 262.496,134.753 262.553,134.895 262.784 C 135.225 263.318,129.049 267.322,128.458 266.957 C 128.192 266.792,128.109 266.846,128.258 267.087 C 128.398 267.314,127.670 268.039,126.636 268.703 C 121.911 271.735,121.020 274.485,123.297 279.004 C 124.381 281.154,124.274 281.412,123.056 279.590 C 122.589 278.892,122.308 278.584,122.431 278.906 C 122.555 279.229,122.763 279.794,122.893 280.163 C 123.024 280.532,123.452 280.935,123.844 281.060 C 124.235 281.184,125.000 282.044,125.543 282.970 C 126.086 283.897,127.339 285.647,128.327 286.860 C 129.315 288.072,130.012 289.244,129.876 289.464 C 129.740 289.683,129.862 289.815,130.147 289.756 C 130.431 289.697,130.616 289.881,130.557 290.166 C 130.498 290.450,130.615 290.580,130.818 290.455 C 131.306 290.154,132.813 292.093,132.813 293.021 C 132.813 293.422,132.999 293.750,133.226 293.750 C 133.454 293.750,133.531 293.574,133.398 293.359 C 132.780 292.359,133.972 293.146,135.553 294.782 C 136.516 295.779,139.063 297.922,141.211 299.542 C 143.359 301.163,145.246 302.676,145.404 302.905 C 145.562 303.133,145.694 303.190,145.697 303.032 C 145.700 302.873,146.890 303.473,148.340 304.366 C 151.508 306.316,158.573 309.683,162.187 310.965 C 163.919 311.579,164.645 312.008,164.335 312.233 C 164.034 312.453,164.125 312.490,164.591 312.339 C 165.370 312.085,171.552 313.633,171.317 314.023 C 171.239 314.152,171.908 314.291,172.803 314.331 C 173.698 314.372,174.954 314.620,175.594 314.883 C 176.234 315.145,176.884 315.334,177.038 315.302 C 177.192 315.270,179.307 315.583,181.738 315.999 C 193.163 317.952,207.177 317.867,218.652 315.775 C 220.424 315.452,222.077 315.313,222.325 315.467 C 222.588 315.629,222.672 315.575,222.525 315.338 C 222.260 314.909,224.475 314.329,225.436 314.577 C 225.733 314.653,225.805 314.629,225.595 314.522 C 224.962 314.202,232.148 312.129,233.202 312.328 C 234.029 312.483,234.059 312.460,233.398 312.173 C 232.638 311.843,232.641 311.827,233.493 311.556 C 233.974 311.403,234.573 311.404,234.822 311.559 C 235.090 311.724,235.172 311.670,235.022 311.427 C 234.878 311.194,235.278 310.835,235.938 310.605 C 236.582 310.381,237.112 310.320,237.115 310.470 C 237.119 310.619,237.250 310.547,237.408 310.308 C 237.829 309.672,240.202 308.527,240.596 308.771 C 240.782 308.886,241.035 308.717,241.158 308.396 C 241.281 308.075,241.560 307.812,241.779 307.812 C 241.997 307.812,243.053 307.272,244.126 306.612 C 245.199 305.952,246.284 305.540,246.536 305.696 C 246.803 305.861,246.892 305.812,246.748 305.579 C 246.612 305.359,247.419 304.568,248.543 303.821 C 251.661 301.751,257.807 296.445,259.686 294.202 C 260.609 293.101,261.576 292.241,261.835 292.291 C 262.093 292.342,262.263 292.117,262.211 291.792 C 262.160 291.467,262.839 290.413,263.720 289.448 C 264.602 288.484,265.321 287.607,265.319 287.500 C 265.308 286.834,267.335 284.029,267.676 284.240 C 267.914 284.387,267.975 284.311,267.820 284.060 C 267.672 283.821,268.059 282.607,268.679 281.363 C 269.300 280.119,270.124 278.257,270.512 277.225 C 271.024 275.861,271.316 275.487,271.583 275.857 C 271.849 276.228,271.888 276.178,271.726 275.675 C 271.603 275.294,272.008 273.009,272.626 270.597 C 274.070 264.961,275.385 253.622,274.534 254.148 C 274.360 254.255,274.236 253.410,274.258 252.269 C 274.288 250.644,274.364 250.406,274.609 251.172 L 274.922 252.148 274.961 251.074 C 274.985 250.409,274.797 250.000,274.468 250.000 C 274.115 250.000,273.853 249.292,273.689 247.905 C 273.110 242.974,270.058 234.857,267.182 230.595 C 265.903 228.701,265.765 228.326,266.504 228.751 C 266.788 228.914,266.856 228.883,266.667 228.676 C 266.488 228.480,266.180 228.320,265.983 228.320 C 265.786 228.320,265.643 228.232,265.665 228.125 C 265.713 227.890,262.427 224.140,260.621 222.369 C 259.909 221.672,259.301 220.760,259.270 220.343 C 259.239 219.926,259.071 219.673,258.897 219.781 C 258.723 219.888,258.702 220.183,258.850 220.437 C 258.998 220.691,258.741 220.567,258.279 220.163 C 257.818 219.758,257.551 219.247,257.687 219.028 C 257.822 218.809,257.745 218.746,257.515 218.888 C 257.285 219.030,256.599 218.729,255.990 218.219 C 255.381 217.709,253.477 216.372,251.758 215.247 C 250.039 214.123,248.681 213.031,248.740 212.822 C 248.799 212.613,248.678 212.547,248.471 212.675 C 247.938 213.004,242.184 210.088,242.466 209.631 C 242.594 209.424,242.516 209.367,242.293 209.505 C 241.761 209.834,239.394 209.006,239.655 208.583 C 239.766 208.404,239.651 208.130,239.399 207.974 C 239.114 207.798,239.046 207.861,239.221 208.143 C 239.565 208.700,239.486 208.701,237.911 208.152 C 236.969 207.823,236.778 207.620,237.169 207.359 C 237.514 207.129,237.343 207.089,236.674 207.244 C 235.928 207.416,235.585 207.302,235.400 206.821 C 235.234 206.388,234.874 206.233,234.352 206.369 C 233.349 206.631,228.883 205.151,228.194 204.328 C 227.909 203.989,227.799 203.949,227.950 204.241 C 228.146 204.623,228.018 204.713,227.490 204.562 C 221.786 202.936,215.120 201.158,213.961 200.953 C 213.152 200.810,212.393 200.534,212.273 200.340 C 212.153 200.146,211.920 200.071,211.755 200.173 C 211.590 200.275,206.636 199.115,200.747 197.596 C 194.858 196.077,189.646 194.746,189.165 194.638 C 188.684 194.530,188.380 194.297,188.490 194.120 C 188.599 193.942,188.369 193.821,187.978 193.851 C 187.072 193.919,182.382 192.178,182.585 191.849 C 182.669 191.713,182.311 191.576,181.791 191.545 C 179.162 191.387,173.995 186.860,172.355 183.277 C 170.813 179.909,172.084 170.602,173.930 171.743 C 174.164 171.887,174.224 171.809,174.071 171.561 C 173.390 170.459,180.098 164.967,181.478 165.496 C 181.934 165.671,182.068 165.611,181.884 165.313 C 181.498 164.688,183.880 163.743,188.020 162.878 C 191.984 162.050,201.563 161.412,201.563 161.976 C 201.563 162.178,202.144 162.275,202.854 162.192 C 205.596 161.872,216.715 164.419,216.202 165.249 C 216.077 165.451,216.230 165.518,216.542 165.399 C 218.191 164.766,229.025 172.687,228.242 173.954 C 228.111 174.166,228.192 174.223,228.421 174.082 C 228.658 173.935,229.530 174.859,230.435 176.214 C 232.033 178.607,232.427 179.587,231.580 179.064 C 231.299 178.890,231.235 178.957,231.412 179.243 C 231.567 179.494,231.835 179.613,232.007 179.507 C 232.179 179.401,232.813 180.094,233.416 181.048 C 236.309 185.626,238.679 185.148,253.711 176.948 C 267.446 169.457,268.780 168.482,269.034 165.757 C 269.334 162.531,263.783 152.391,260.357 149.908 C 260.139 149.750,232.627 149.621,199.219 149.621 C 165.811 149.621,138.295 149.750,138.073 149.908 M225.000 171.289 C 225.000 171.611,225.285 171.875,225.634 171.875 C 226.153 171.875,226.180 171.769,225.781 171.289 C 225.514 170.967,225.229 170.703,225.147 170.703 C 225.066 170.703,225.000 170.967,225.000 171.289 M189.648 194.139 C 190.666 194.578,191.016 194.601,191.016 194.226 C 191.016 194.058,190.532 193.894,189.941 193.861 C 189.014 193.809,188.974 193.847,189.648 194.139 M143.781 221.387 C 143.799 221.795,143.891 221.874,144.009 221.582 C 144.117 221.313,144.377 221.094,144.587 221.094 C 144.796 221.094,144.843 221.297,144.689 221.545 C 144.515 221.826,144.582 221.890,144.868 221.713 C 145.435 221.362,145.073 220.703,144.313 220.703 C 144.003 220.703,143.764 221.011,143.781 221.387 M147.559 223.306 C 147.827 223.414,148.047 223.762,148.047 224.079 C 148.047 224.396,148.231 224.542,148.456 224.402 C 148.950 224.097,148.188 223.030,147.511 223.078 C 147.234 223.097,147.252 223.182,147.559 223.306 M203.255 243.164 C 203.255 243.874,203.765 243.938,204.038 243.262 C 204.190 242.886,204.242 242.892,204.266 243.285 C 204.283 243.566,204.476 243.686,204.694 243.551 C 205.255 243.204,204.775 242.578,203.948 242.578 C 203.567 242.578,203.255 242.842,203.255 243.164 M175.954 272.830 C 176.859 273.555,177.204 273.589,177.576 272.987 C 177.747 272.710,177.684 272.641,177.412 272.809 C 177.169 272.960,176.570 272.889,176.082 272.653 C 175.232 272.240,175.227 272.248,175.954 272.830 " stroke="none" fill="#043b63" fill-rule="evenodd"></path><path id="path2" d="M186.328 82.312 C 182.870 86.965,179.522 89.657,173.307 92.780 C 167.172 95.863,166.690 96.377,168.359 98.047 C 172.114 101.801,186.211 94.809,189.789 87.417 C 193.418 79.921,190.883 76.182,186.328 82.312 M139.063 128.711 L 139.063 135.156 200.391 135.156 L 261.719 135.156 261.719 129.180 C 261.719 125.052,261.574 123.058,261.250 122.734 C 260.889 122.374,246.736 122.266,199.922 122.266 L 139.063 122.266 139.063 128.711 " stroke="none" fill="#dd4e16" fill-rule="evenodd"></path></g></svg>