<svg width="329" height="182" viewBox="0 0 329 182" fill="none" xmlns="http://www.w3.org/2000/svg">
<path d="M6.61245 48.9924C2.92084 63.0615 0.819402 77.5188 0.348486 92.0804C-0.448535 108.179 -0.371154 125.992 6.04867 141.113C17.1755 167.304 53.5322 170.835 77.5754 174.187C113.472 178.929 149.616 181.441 185.809 181.707C216.758 182.146 249.71 183.044 280.095 176.003C317.6 167.324 324.836 127.489 327.579 93.7575C329.525 69.9191 333.298 33.9133 308.127 21.565C288.285 11.7509 264.806 8.37964 243.155 5.42719C213.238 1.37119 183.069 -0.415932 152.896 0.08115C120.604 0.659851 87.4183 3.11352 56.2742 12.4288C37.2695 18.0333 13.265 27.7681 6.61245 48.9924C6.12605 50.5284 8.55802 51.187 8.96648 49.651C14.8021 30.92 35.5777 21.7237 52.3256 16.278C77.3809 8.05939 104.089 4.94712 130.33 3.45134C182.327 0.499455 238.02 2.47418 288.48 16.9564C296.366 18.9204 303.97 21.9244 311.103 25.8931C322.774 32.9945 324.934 47.6168 325.789 60.5029C326.579 77.3317 325.784 94.1996 323.416 110.871C320.965 131.139 314.915 153.281 297.739 165.65C285.562 174.406 269.786 175.744 255.391 177.119C240.354 178.555 225.239 179.114 210.125 179.274C175.575 179.714 141.026 178.31 106.618 175.065C90.1222 173.508 73.5489 171.574 57.3249 168.382C42.3463 165.45 24.9367 161.54 14.1405 149.631C2.13819 136.365 2.11884 113.784 2.58589 96.8488C2.7611 80.9042 4.89902 65.0469 8.94713 49.6516C9.0223 48.9618 8.53812 48.34 7.86546 48.2624C7.33761 48.2012 6.83188 48.4965 6.61245 48.9924Z" fill="#F9B200"/>
</svg>
